<svg width="100%" height="100%" style="overflow:visible;" preserveAspectRatio="none" viewBox="0 0 11 14" fill="none" xmlns="http://www.w3.org/2000/svg">
<path d="M11.1716 11.2661C11.1716 11.8789 10.9817 12.3627 10.6019 12.7175C10.2221 13.0735 9.7165 13.2515 9.08521 13.2515H2.25826C1.62826 13.2515 1.12271 13.0735 0.741597 12.7175C0.361782 12.3627 0.171875 11.8789 0.171875 11.2661C0.171875 10.9953 0.180949 10.7308 0.199097 10.4727C0.217245 10.2146 0.253542 9.93615 0.307986 9.63736C0.363727 9.33856 0.433079 9.06138 0.516042 8.80582C0.599005 8.55026 0.711134 8.30168 0.852431 8.06011C0.992431 7.81726 1.15382 7.61001 1.3366 7.43836C1.51808 7.26799 1.74039 7.1313 2.00354 7.02831C2.26669 6.9266 2.55706 6.87574 2.87465 6.87574C2.92132 6.87574 3.03086 6.93041 3.20326 7.03976C3.37567 7.15038 3.56947 7.27307 3.78465 7.40785C4.00113 7.54389 4.28243 7.66659 4.62854 7.77594C4.97465 7.88528 5.32271 7.93995 5.67271 7.93995C6.02141 7.93995 6.36882 7.88528 6.71493 7.77594C7.06104 7.66659 7.34234 7.54389 7.55882 7.40785C7.7753 7.27307 7.9691 7.15038 8.14021 7.03976C8.31262 6.93041 8.42215 6.87574 8.46882 6.87574C8.78641 6.87574 9.07678 6.9266 9.33993 7.02831C9.60308 7.1313 9.82539 7.26799 10.0069 7.43836C10.1897 7.61001 10.3517 7.81726 10.493 8.06011C10.633 8.30168 10.7445 8.55026 10.8274 8.80582C10.9117 9.06138 10.981 9.33856 11.0355 9.63736C11.0899 9.93615 11.1262 10.2146 11.1444 10.4727C11.1625 10.7308 11.1716 10.9953 11.1716 11.2661ZM7.79215 2.34234C8.37808 2.91704 8.67104 3.61062 8.67104 4.42309C8.67104 5.23555 8.37808 5.92913 7.79215 6.50384C7.20623 7.07854 6.49975 7.36589 5.67271 7.36589C4.84437 7.36589 4.13724 7.07854 3.55132 6.50384C2.96539 5.92913 2.67243 5.23555 2.67243 4.42309C2.67243 3.61062 2.96539 2.91704 3.55132 2.34234C4.13724 1.76764 4.84437 1.48029 5.67271 1.48029C6.49975 1.48029 7.20623 1.76764 7.79215 2.34234Z" fill="white"/>
</svg>