<svg width="100%" height="100%" style="overflow:visible;" preserveAspectRatio="none" viewBox="0 0 18.23 19" fill="none" xmlns="http://www.w3.org/2000/svg">
<path d="M5.37025 15.132C5.63292 15.3943 5.76425 15.7057 5.76425 16.0664C5.76425 16.427 5.63292 16.7393 5.37025 17.0033C5.10586 17.2674 4.79308 17.3994 4.43191 17.3994C4.07075 17.3994 3.75883 17.2674 3.49617 17.0033C3.23177 16.7393 3.09958 16.427 3.09958 16.0664C3.09958 15.7057 3.23177 15.3943 3.49617 15.132C3.75883 14.868 4.07075 14.736 4.43191 14.736C4.79308 14.736 5.10586 14.868 5.37025 15.132ZM14.7018 15.132C14.9645 15.3943 15.0958 15.7057 15.0958 16.0664C15.0958 16.427 14.9645 16.7393 14.7018 17.0033C14.4374 17.2674 14.1246 17.3994 13.7635 17.3994C13.4023 17.3994 13.0904 17.2674 12.8277 17.0033C12.5633 16.7393 12.4311 16.427 12.4311 16.0664C12.4311 15.7057 12.5633 15.3943 12.8277 15.132C13.0904 14.868 13.4023 14.736 13.7635 14.736C14.1246 14.736 14.4374 14.868 14.7018 15.132ZM16.4307 4.75275V10.077C16.4307 10.2443 16.3728 10.3919 16.257 10.5196C16.143 10.6473 16.003 10.7214 15.8371 10.7422L4.96329 12.0104C5.05315 12.428 5.09808 12.6713 5.09808 12.7404C5.09808 12.8508 5.01513 13.0725 4.84924 13.4056H14.4296C14.6111 13.4056 14.7675 13.4711 14.8988 13.6023C15.0301 13.7351 15.0958 13.8913 15.0958 14.0708C15.0958 14.2502 15.0301 14.4064 14.8988 14.5392C14.7675 14.6704 14.6111 14.736 14.4296 14.736H3.76575C3.58603 14.736 3.42964 14.6704 3.29658 14.5392C3.16524 14.4064 3.09958 14.2502 3.09958 14.0708C3.09958 13.9948 3.12723 13.8853 3.18252 13.742C3.23782 13.6005 3.29312 13.4763 3.34842 13.3693C3.40372 13.2623 3.47889 13.1234 3.57393 12.9526C3.66725 12.7835 3.72082 12.6817 3.73464 12.6472L1.89166 4.08755H-0.233856C-0.413575 4.08755 -0.569964 4.02197 -0.703025 3.89083C-0.834358 3.75796 -0.900024 3.6018 -0.900024 3.42234C-0.900024 3.24116 -0.834358 3.085 -0.703025 2.95385C-0.569964 2.82271 -0.413575 2.75714 -0.233856 2.75714H2.43341C2.544 2.75714 2.6425 2.77957 2.72891 2.82444C2.81531 2.8693 2.88357 2.92279 2.93368 2.98491C2.98207 3.04703 3.027 3.13159 3.06847 3.23857C3.10995 3.34728 3.13759 3.43787 3.15142 3.51035C3.16524 3.58282 3.18425 3.68463 3.20845 3.81577C3.23264 3.94864 3.24819 4.03923 3.2551 4.08755H15.7645C15.9443 4.08755 16.0998 4.15312 16.2311 4.28426C16.3642 4.41713 16.4307 4.57329 16.4307 4.75275Z" fill="#333333"/>
</svg>