<svg width="100%" height="100%" style="overflow:visible;" preserveAspectRatio="none" viewBox="0 0 15.6 17" fill="none" xmlns="http://www.w3.org/2000/svg">
<path d="M6.00371 13.7053C6.24015 13.9399 6.35838 14.2186 6.35838 14.5413C6.35838 14.864 6.24015 15.1434 6.00371 15.3797C5.76571 15.6159 5.48415 15.734 5.15904 15.734C4.83393 15.734 4.55315 15.6159 4.31671 15.3797C4.07871 15.1434 3.95971 14.864 3.95971 14.5413C3.95971 14.2186 4.07871 13.9399 4.31671 13.7053C4.55315 13.4691 4.83393 13.3509 5.15904 13.3509C5.48415 13.3509 5.76571 13.4691 6.00371 13.7053ZM14.4037 13.7053C14.6402 13.9399 14.7584 14.2186 14.7584 14.5413C14.7584 14.864 14.6402 15.1434 14.4037 15.3797C14.1657 15.6159 13.8842 15.734 13.559 15.734C13.2339 15.734 12.9532 15.6159 12.7167 15.3797C12.4787 15.1434 12.3597 14.864 12.3597 14.5413C12.3597 14.2186 12.4787 13.9399 12.7167 13.7053C12.9532 13.4691 13.2339 13.3509 13.559 13.3509C13.8842 13.3509 14.1657 13.4691 14.4037 13.7053ZM15.96 4.4186V9.18236C15.96 9.33212 15.9079 9.46413 15.8037 9.57838C15.701 9.69263 15.575 9.75902 15.4257 9.77754L5.63738 10.9123C5.71826 11.286 5.75871 11.5036 5.75871 11.5654C5.75871 11.6642 5.68404 11.8626 5.53471 12.1606H14.1587C14.322 12.1606 14.4628 12.2193 14.581 12.3366C14.6993 12.4555 14.7584 12.5952 14.7584 12.7558C14.7584 12.9163 14.6993 13.0561 14.581 13.1749C14.4628 13.2923 14.322 13.3509 14.1587 13.3509H4.55938C4.3976 13.3509 4.25682 13.2923 4.13704 13.1749C4.01882 13.0561 3.95971 12.9163 3.95971 12.7558C3.95971 12.6878 3.9846 12.5898 4.03438 12.4616C4.08415 12.335 4.13393 12.2239 4.18371 12.1282C4.23349 12.0324 4.30115 11.9082 4.38671 11.7553C4.47071 11.604 4.51893 11.5129 4.53137 11.482L2.87238 3.82342H0.959042C0.797264 3.82342 0.656486 3.76475 0.536708 3.64741C0.418486 3.52853 0.359375 3.38881 0.359375 3.22824C0.359375 3.06613 0.418486 2.9264 0.536708 2.80906C0.656486 2.69173 0.797264 2.63306 0.959042 2.63306H3.36004C3.4596 2.63306 3.54826 2.65313 3.62604 2.69327C3.70382 2.73341 3.76526 2.78127 3.81038 2.83685C3.85393 2.89244 3.89438 2.96809 3.93171 3.06381C3.96904 3.16108 3.99393 3.24213 4.00638 3.30698C4.01882 3.37182 4.03593 3.46291 4.05771 3.58025C4.07949 3.69913 4.09349 3.78019 4.09971 3.82342H15.3604C15.5222 3.82342 15.6622 3.88209 15.7804 3.99943C15.9002 4.11831 15.96 4.25803 15.96 4.4186Z" fill="#333333"/>
</svg>