<svg width="100%" height="100%" style="overflow:visible;" preserveAspectRatio="none" viewBox="0 0 15.6 17" fill="none" xmlns="http://www.w3.org/2000/svg">
<path d="M6.51933 14.174C6.75578 14.4087 6.874 14.6874 6.874 15.0101C6.874 15.3327 6.75578 15.6122 6.51933 15.8484C6.28133 16.0846 5.99978 16.2027 5.67467 16.2027C5.34956 16.2027 5.06878 16.0846 4.83233 15.8484C4.59433 15.6122 4.47533 15.3327 4.47533 15.0101C4.47533 14.6874 4.59433 14.4087 4.83233 14.174C5.06878 13.9378 5.34956 13.8197 5.67467 13.8197C5.99978 13.8197 6.28133 13.9378 6.51933 14.174ZM14.9193 14.174C15.1558 14.4087 15.274 14.6874 15.274 15.0101C15.274 15.3327 15.1558 15.6122 14.9193 15.8484C14.6813 16.0846 14.3998 16.2027 14.0747 16.2027C13.7496 16.2027 13.4688 16.0846 13.2323 15.8484C12.9943 15.6122 12.8753 15.3327 12.8753 15.0101C12.8753 14.6874 12.9943 14.4087 13.2323 14.174C13.4688 13.9378 13.7496 13.8197 14.0747 13.8197C14.3998 13.8197 14.6813 13.9378 14.9193 14.174ZM16.4757 4.88735V9.65111C16.4757 9.80087 16.4236 9.93288 16.3193 10.0471C16.2167 10.1614 16.0907 10.2278 15.9413 10.2463L6.153 11.3811C6.23389 11.7547 6.27433 11.9724 6.27433 12.0342C6.27433 12.133 6.19967 12.3314 6.05033 12.6293H14.6743C14.8377 12.6293 14.9784 12.688 15.0967 12.8053C15.2149 12.9242 15.274 13.0639 15.274 13.2245C15.274 13.3851 15.2149 13.5248 15.0967 13.6437C14.9784 13.761 14.8377 13.8197 14.6743 13.8197H5.075C4.91322 13.8197 4.77244 13.761 4.65267 13.6437C4.53444 13.5248 4.47533 13.3851 4.47533 13.2245C4.47533 13.1566 4.50022 13.0585 4.55 12.9304C4.59978 12.8038 4.64956 12.6926 4.69933 12.5969C4.74911 12.5012 4.81678 12.3769 4.90233 12.2241C4.98633 12.0728 5.03456 11.9817 5.047 11.9508L3.388 4.29217H1.47467C1.31289 4.29217 1.17211 4.2335 1.05233 4.11616C0.934111 3.99728 0.875 3.85756 0.875 3.69699C0.875 3.53488 0.934111 3.39515 1.05233 3.27781C1.17211 3.16048 1.31289 3.10181 1.47467 3.10181H3.87567C3.97522 3.10181 4.06389 3.12188 4.14167 3.16202C4.21944 3.20216 4.28089 3.25002 4.326 3.3056C4.36956 3.36119 4.41 3.43684 4.44733 3.53256C4.48467 3.62983 4.50956 3.71088 4.522 3.77573C4.53444 3.84057 4.55156 3.93166 4.57333 4.049C4.59511 4.16788 4.60911 4.24894 4.61533 4.29217H15.876C16.0378 4.29217 16.1778 4.35084 16.296 4.46818C16.4158 4.58706 16.4757 4.72678 16.4757 4.88735Z" fill="white"/>
</svg>