<svg width="100%" height="100%" style="overflow:visible;" preserveAspectRatio="none" viewBox="0 0 32 38" fill="none" xmlns="http://www.w3.org/2000/svg">
<path d="M30.5125 10.6174C31.9402 13.0643 32.654 15.7372 32.654 18.6361C32.654 21.535 31.9402 24.2079 30.5125 26.6548C29.0814 29.1016 27.1404 31.0394 24.6896 32.4682C22.2353 33.8969 19.558 34.6113 16.6577 34.6113C13.754 34.6113 11.0767 33.8969 8.62588 32.4682C6.17502 31.0394 4.23403 29.1016 2.80292 26.6548C1.37181 24.2079 0.65625 21.535 0.65625 18.6361C0.65625 15.7372 1.37181 13.0643 2.80292 10.6174C4.23403 8.17059 6.17502 6.23279 8.62588 4.80403C11.0767 3.37527 13.754 2.66089 16.6577 2.66089C19.558 2.66089 22.2353 3.37527 24.6896 4.80403C27.1404 6.23279 29.0814 8.17059 30.5125 10.6174Z" fill="#5B4530"/>
</svg>