<svg width="100%" height="100%" style="overflow:visible;" preserveAspectRatio="none" viewBox="0 0 18.66 19" fill="none" xmlns="http://www.w3.org/2000/svg">
<path d="M18.9881 7.38445V15.6412C18.9881 16.0985 18.8249 16.4902 18.4983 16.8163C18.1717 17.1425 17.7795 17.3055 17.3217 17.3055H1.99457C1.53671 17.3055 1.1445 17.1425 0.81795 16.8163C0.4914 16.4902 0.328125 16.0985 0.328125 15.6412V7.38445C0.633942 7.72439 0.984681 8.0255 1.38034 8.28778C3.89253 9.99436 5.61772 11.1902 6.5559 11.8752C6.95156 12.1668 7.27206 12.3946 7.51741 12.5585C7.76448 12.7207 8.09276 12.8864 8.50224 13.0555C8.91173 13.2263 9.29356 13.3117 9.64776 13.3117H9.65812H9.66849C10.0227 13.3117 10.4045 13.2263 10.814 13.0555C11.2235 12.8864 11.5518 12.7207 11.7988 12.5585C12.0442 12.3946 12.3647 12.1668 12.7604 11.8752C13.9404 11.0228 15.6691 9.82698 17.9463 8.28778C18.3419 8.0186 18.6892 7.71749 18.9881 7.38445ZM18.9881 4.32504C18.9881 4.87377 18.8179 5.39748 18.4776 5.89616C18.1372 6.39485 17.7139 6.82106 17.2076 7.1748C14.597 8.98491 12.9729 10.1117 12.3353 10.5552C12.2645 10.6035 12.1168 10.7096 11.8921 10.8735C11.6658 11.0357 11.4783 11.1669 11.3298 11.267C11.1794 11.3688 10.9989 11.4818 10.7881 11.606C10.5756 11.7303 10.376 11.8234 10.1894 11.8856C10.0011 11.9494 9.82745 11.9813 9.66849 11.9813H9.65812H9.64776C9.4888 11.9813 9.31516 11.9494 9.12683 11.8856C8.94023 11.8234 8.74067 11.7303 8.52816 11.606C8.31737 11.4818 8.13682 11.3688 7.9865 11.267C7.83791 11.1669 7.65045 11.0357 7.42411 10.8735C7.1995 10.7096 7.05177 10.6035 6.98093 10.5552C6.35029 10.1117 5.44148 9.47928 4.2545 8.65792C3.06752 7.83655 2.35567 7.34218 2.11897 7.1748C1.68875 6.88491 1.28272 6.48458 0.900883 5.97381C0.519044 5.46477 0.328125 4.99197 0.328125 4.5554C0.328125 4.01358 0.472394 3.56321 0.760933 3.20429C1.04774 2.84365 1.45896 2.66333 1.99457 2.66333H17.3217C17.7726 2.66333 18.1631 2.82553 18.4931 3.14994C18.8231 3.47607 18.9881 3.86777 18.9881 4.32504Z" fill="white"/>
</svg>