<svg width="10" height="12" viewBox="0 0 10 12" fill="none" xmlns="http://www.w3.org/2000/svg">
<path d="M2.81306 4.10067V5.57303H6.81278V4.10067C6.81278 3.55903 6.61769 3.09685 6.2275 2.71414C5.83602 2.33143 5.36417 2.14008 4.81194 2.14008C4.25972 2.14008 3.78852 2.33143 3.39833 2.71414C3.00815 3.09685 2.81306 3.55903 2.81306 4.10067ZM9.31333 6.3073V10.7225C9.31333 10.9259 9.24009 11.0994 9.09361 11.2431C8.94843 11.3855 8.77148 11.4567 8.56278 11.4567H1.06306C0.854352 11.4567 0.677407 11.3855 0.532222 11.2431C0.385741 11.0994 0.3125 10.9259 0.3125 10.7225V6.3073C0.3125 6.10386 0.385741 5.93031 0.532222 5.78663C0.677407 5.64423 0.854352 5.57303 1.06306 5.57303H1.31194V4.10067C1.31194 3.16106 1.65611 2.35432 2.34444 1.68044C3.03148 1.0053 3.85398 0.667725 4.81194 0.667725C5.7712 0.667725 6.59435 1.0053 7.28139 1.68044C7.96843 2.35432 8.31194 3.16106 8.31194 4.10067V5.57303H8.56278C8.77148 5.57303 8.94843 5.64423 9.09361 5.78663C9.24009 5.93031 9.31333 6.10386 9.31333 6.3073Z" fill="#333333"/>
</svg>
